<?xml version="1.0" standalone="no"?>
<!DOCTYPE svg PUBLIC "-//W3C//DTD SVG 1.1//EN" "http://www.w3.org/Graphics/SVG/1.1/DTD/svg11.dtd" >
<svg xmlns="http://www.w3.org/2000/svg">
<metadata></metadata>
<defs>
<font id="gloriola_stdlight" horiz-adv-x="1146" >
<font-face units-per-em="2048" ascent="1638" descent="-410" />
<missing-glyph horiz-adv-x="559" />
<glyph horiz-adv-x="2048" />
<glyph horiz-adv-x="2048" />
<glyph unicode="&#xd;" horiz-adv-x="682" />
<glyph unicode=" "  horiz-adv-x="559" />
<glyph unicode="&#x09;" horiz-adv-x="559" />
<glyph unicode="&#xa0;" horiz-adv-x="559" />
<glyph unicode="!" horiz-adv-x="704" d="M266 76q0 37 24.5 61.5t61.5 24.5t61.5 -24.5t24.5 -61.5t-24.5 -61.5t-61.5 -24.5t-61.5 24.5t-24.5 61.5zM297 1438h111l-9 -1073l-94 -9z" />
<glyph unicode="&#x22;" horiz-adv-x="471" d="M72 1438h112l-14 -447h-84zM287 1438h112l-14 -447h-84z" />
<glyph unicode="#" d="M-10 406l8 94h190l123 438h-207l9 94h223l115 410l104 -8l-113 -402h435l114 410l105 -8l-113 -402h174l-8 -94h-191l-122 -438h206l-8 -94h-225l-113 -410l-104 8l110 402h-434l-112 -410l-105 8l111 402h-172zM295 500h434l123 438h-434z" />
<glyph unicode="$" horiz-adv-x="1089" d="M113 1098q0 166 109.5 256t287.5 102v223l94 9v-232q176 -6 346 -82l-22 -98q-168 86 -365 86q-152 0 -248 -65.5t-96 -204.5q0 -92 80 -162t194.5 -118t229.5 -101.5t194.5 -141.5t79.5 -209q0 -172 -109.5 -267t-283.5 -109v-226l-94 -8v230q-195 6 -371 83l23 99 q182 -84 370 -84q158 0 258.5 69.5t100.5 219.5q0 78 -57.5 140t-144.5 102l-187 87q-100 47 -187.5 94.5t-144.5 127.5t-57 180z" />
<glyph unicode="%" horiz-adv-x="1568" d="M51 1051q0 209 87 305t239 96q147 0 235 -96t88 -305q0 -211 -88 -309.5t-235 -98.5q-152 0 -239 98.5t-87 309.5zM147 1051q0 -319 230 -320q104 0 165.5 77t61.5 243q0 313 -227 313q-230 0 -230 -313zM293 0l872 1438h109l-871 -1438h-110zM868 391q0 209 87 305.5 t239 96.5q147 0 235.5 -96.5t88.5 -305.5q0 -211 -88.5 -309t-235.5 -98q-152 0 -239 98t-87 309zM965 391q0 -319 229 -319q104 0 165.5 76.5t61.5 242.5q0 313 -227 314q-229 -1 -229 -314z" />
<glyph unicode="&#x26;" horiz-adv-x="1323" d="M92 332q0 129 73 223t206 190q-199 231 -199 381q0 154 92 244t248 90q145 0 242.5 -84t97.5 -227q0 -70 -24.5 -127t-83 -113.5t-99.5 -87t-129 -90.5q178 -186 451 -395q92 106 188 289l94 -37q-90 -182 -200 -314q125 -92 294 -206l-51 -91q-152 100 -313 222 q-223 -219 -475 -219q-190 0 -301 98t-111 254zM199 332q0 -113 81.5 -183.5t223.5 -70.5q205 0 393 182q-281 223 -461 414q-113 -82 -175 -162t-62 -180zM279 1126q0 -127 172 -325q90 61 143 102t102 108.5t49 133.5q0 98 -66.5 157.5t-166.5 59.5q-106 0 -169.5 -63.5 t-63.5 -172.5z" />
<glyph unicode="'" horiz-adv-x="256" d="M72 1438h112l-14 -447h-84z" />
<glyph unicode="(" horiz-adv-x="647" d="M92 776q0 336 129 577.5t373 368.5l84 -67q-233 -111 -356 -336t-123 -542.5t122.5 -543t356.5 -335.5l-84 -68q-244 127 -373 368.5t-129 577.5z" />
<glyph unicode=")" horiz-adv-x="647" d="M-31 -102q233 111 356.5 336t123.5 542.5t-123 542.5t-357 336l84 67q244 -127 373 -368.5t129 -577.5t-129 -577.5t-373 -368.5z" />
<glyph unicode="*" horiz-adv-x="954" d="M72 1098l28 112l328 -120l-14 344l116 8l-12 -352l322 118l43 -108l-334 -96l211 -267l-90 -75l-197 292l-192 -286l-99 61l215 277z" />
<glyph unicode="+" d="M82 674l8 94h432v436l103 8v-444h440l-6 -94h-434v-436l-103 -11v447h-440z" />
<glyph unicode="," horiz-adv-x="397" d="M102 -266q59 129 63.5 235.5t-42.5 235.5l131 10q41 -143 26.5 -245.5t-81.5 -245.5z" />
<glyph unicode="-" horiz-adv-x="542" d="M72 438l8 94h391l-8 -94h-391z" />
<glyph unicode="." horiz-adv-x="397" d="M113 76q0 37 24.5 61.5t61.5 24.5t61.5 -24.5t24.5 -61.5t-24.5 -61.5t-61.5 -24.5t-61.5 24.5t-24.5 61.5z" />
<glyph unicode="/" horiz-adv-x="600" d="M-92 -156l680 1872l104 -8l-680 -1872z" />
<glyph unicode="0" horiz-adv-x="1331" d="M133 721q0 383 144.5 560t390.5 177q242 0 386 -178t144 -559q0 -385 -144.5 -563t-385.5 -178q-246 0 -390.5 178t-144.5 563zM240 721q0 -334 115.5 -488.5t312.5 -154.5q193 0 308.5 154.5t115.5 488.5q0 330 -116 484.5t-308 154.5q-197 0 -312.5 -153.5 t-115.5 -485.5z" />
<glyph unicode="1" horiz-adv-x="686" d="M51 1188v106l375 144h106v-1438h-106v1331z" />
<glyph unicode="2" horiz-adv-x="1036" d="M72 98l311 295q115 113 222.5 238t152.5 224t45 192q0 162 -92.5 238.5t-241.5 76.5q-176 0 -354 -86l-23 98q197 84 383 84q193 0 313.5 -100.5t120.5 -308.5q0 -190 -169 -409.5t-537 -541.5h741l-8 -98h-856z" />
<glyph unicode="3" horiz-adv-x="1021" d="M72 63l22 99q178 -84 367 -84q160 0 261 68.5t101 213.5q0 94 -55 174t-154 125h-319l8 99h291q188 119 188 329q0 135 -92 204t-241 69q-174 0 -355 -84l-22 98q186 84 381 84q190 0 313 -92t123 -276q0 -211 -189 -371q115 -66 172.5 -160t57.5 -199 q0 -195 -130 -287.5t-331 -92.5q-202 -1 -397 83z" />
<glyph unicode="4" horiz-adv-x="1148" d="M51 477q176 213 255 443.5t79 517.5h107q0 -297 -76 -519.5t-244 -441.5h506v387l106 8v-395h314l-8 -98h-306v-379h-106v379h-619z" />
<glyph unicode="5" horiz-adv-x="1005" d="M92 66l23 96q174 -84 356 -84q158 0 257 77.5t99 241.5q0 311 -405 312h-268v729h706l-8 -99h-592v-536q369 29 521.5 -72.5t152.5 -333.5q0 -209 -128 -313t-331 -104q-188 0 -383 86z" />
<glyph unicode="6" horiz-adv-x="1130" d="M113 657q0 410 146.5 605.5t391.5 195.5q164 0 344 -80l-30 -96q-174 78 -318 78q-193 0 -307.5 -162t-120.5 -506q260 143 459 144q178 0 279.5 -111t101.5 -311q0 -188 -126 -311t-341 -123q-219 0 -349 170.5t-130 506.5zM221 586q12 -252 111.5 -380t259.5 -128 q166 0 263 95t97 241q0 158 -73.5 240.5t-202.5 82.5q-183 1 -455 -151z" />
<glyph unicode="7" horiz-adv-x="946" d="M31 1339l8 99h868l8 -99q-274 -332 -383.5 -632.5t-109.5 -706.5h-107q0 438 122 758.5t366 580.5h-772z" />
<glyph unicode="8" horiz-adv-x="1171" d="M92 340q0 147 97.5 239.5t271.5 168.5q-156 72 -242 154.5t-86 209.5q0 156 119 251t334 95t333.5 -95t118.5 -251q0 -127 -86 -210t-243 -154q174 -76 272 -168.5t98 -239.5q0 -172 -128 -266t-365.5 -94t-365.5 94t-128 266zM199 340q0 -125 100 -193.5t286.5 -68.5 t287 68.5t100.5 193.5q0 186 -387 354q-387 -168 -387 -354zM240 1112q0 -57 25.5 -103t81.5 -84t104.5 -62.5t134.5 -61.5q86 37 134 61.5t104.5 62.5t82 84t25.5 103q0 113 -90 180.5t-256 67.5t-256 -67.5t-90 -180.5z" />
<glyph unicode="9" horiz-adv-x="1130" d="M72 1024q0 188 126 311t341 123q219 0 349 -171t130 -507q0 -410 -146.5 -605t-392.5 -195q-164 0 -344 79l31 97q174 -78 317 -78q193 0 307.5 161.5t120.5 505.5q-254 -143 -458 -143q-178 0 -279.5 110.5t-101.5 311.5zM178 1024q0 -158 74 -241t203 -83 q186 0 454 150q-14 252 -113.5 381t-256.5 129q-166 0 -263.5 -95.5t-97.5 -240.5z" />
<glyph unicode=":" horiz-adv-x="397" d="M113 76q0 37 24.5 61.5t61.5 24.5t61.5 -24.5t24.5 -61.5t-24.5 -61.5t-61.5 -24.5t-61.5 24.5t-24.5 61.5zM113 895q0 37 24.5 61.5t61.5 24.5t61.5 -24.5t24.5 -61.5t-24.5 -61.5t-61.5 -24.5t-61.5 24.5t-24.5 61.5z" />
<glyph unicode=";" horiz-adv-x="397" d="M102 -266q59 129 63.5 235.5t-42.5 235.5l131 10q41 -143 26.5 -245.5t-81.5 -245.5zM113 895q0 37 24.5 61.5t61.5 24.5t61.5 -24.5t24.5 -61.5t-24.5 -61.5t-61.5 -24.5t-61.5 24.5t-24.5 61.5z" />
<glyph unicode="&#x3c;" d="M82 676l8 94l950 442l35 -88l-868 -403l868 -404l-35 -88z" />
<glyph unicode="=" d="M82 395l8 94h975l-8 -94h-975zM82 952l8 95h975l-8 -95h-975z" />
<glyph unicode="&#x3e;" d="M72 317l868 404l-868 403l34 88l959 -446l-8 -94l-951 -443z" />
<glyph unicode="?" horiz-adv-x="960" d="M72 1395q203 63 379 63q203 0 320.5 -97t117.5 -271q0 -143 -97.5 -276.5t-283.5 -186.5l-2 -262l-94 -9l-2 336q92 23 161.5 59.5t108.5 76.5t63.5 89.5t31.5 89.5t7 80q0 125 -87 199t-228 74q-152 0 -373 -64zM373 76q0 37 24.5 61.5t61.5 24.5t61.5 -24.5t24.5 -61.5 t-24.5 -61.5t-61.5 -24.5t-61.5 24.5t-24.5 61.5z" />
<glyph unicode="@" horiz-adv-x="2080" d="M133 313q0 276 76 489.5t212 346.5t317.5 200.5t398.5 67.5q391 0 601 -200.5t210 -581.5q0 -313 -128 -484t-335 -171q-221 0 -232 272q-223 -272 -405 -272q-127 0 -191.5 102t-64.5 276q0 319 133 476t324 157q150 0 385 -108l-70 -566q-31 -244 121 -243 q164 0 262 145.5t98 415.5q0 334 -184 511t-524 177q-197 0 -359 -61.5t-284.5 -182.5t-190 -316.5t-67.5 -449.5q0 -315 178 -488t510 -173q209 0 401 82l39 -88q-201 -88 -440 -88q-381 0 -586 197.5t-205 557.5zM694 358q0 -131 38 -207.5t116 -76.5q90 0 210 100 t216 256l49 397q-152 70 -274 70q-147 0 -251 -133.5t-104 -405.5z" />
<glyph unicode="A" horiz-adv-x="1290" d="M51 0l522 1434l140 8l526 -1442h-115l-139 387h-684l-139 -387h-111zM336 485h614l-307 854z" />
<glyph unicode="B" horiz-adv-x="1200" d="M154 31v1407h530q164 0 263.5 -94.5t99.5 -245.5q0 -217 -179 -367q117 -66 178.5 -164t61.5 -207q0 -180 -139.5 -280t-386.5 -100q-129 0 -428 51zM260 111q182 -33 322 -33q207 0 313 75.5t106 206.5q0 94 -55 174t-153 125h-533v-548zM260 758h492q188 119 188 340 q0 106 -69.5 173.5t-186.5 67.5h-424v-581z" />
<glyph unicode="C" horiz-adv-x="1245" d="M133 718.5q0 196.5 50 344t139.5 231.5t200 124t243.5 40q195 0 387 -76l-23 -98q-182 76 -364 76q-233 0 -379.5 -154.5t-146.5 -486.5t146 -486.5t380 -154.5q182 0 364 76l23 -99q-190 -75 -382 -75h-5q-133 0 -243.5 39.5t-200 123.5t-139.5 231.5t-50 344z" />
<glyph unicode="D" horiz-adv-x="1413" d="M154 27v1411h481q645 0 645 -713q0 -371 -184.5 -558t-493.5 -187q-235 0 -448 47zM260 109q164 -31 348 -31q258 0 412 162.5t154 484.5q0 614 -541 614h-373v-1230z" />
<glyph unicode="E" horiz-adv-x="1116" d="M154 0v1438h870l-8 -99h-756v-581h662l-9 -99h-653v-561h764l-8 -98h-862z" />
<glyph unicode="F" horiz-adv-x="1054" d="M154 0v1438h870l-8 -99h-756v-602h662l-9 -98h-653v-639h-106z" />
<glyph unicode="G" horiz-adv-x="1382" d="M133 719q0 199 50 345t142.5 230t206 124t254.5 40q195 0 388 -76l-23 -98q-188 76 -365 76q-115 0 -210 -35t-172.5 -107.5t-120.5 -199.5t-43 -299q0 -330 144 -485.5t400 -155.5q172 0 338 63v447h-407l8 98h506v-616q-250 -90 -453 -90q-297 0 -470 179t-173 560z " />
<glyph unicode="H" horiz-adv-x="1339" d="M154 0v1438h106v-680h819v680h107v-1438h-107v659h-819v-659h-106z" />
<glyph unicode="I" horiz-adv-x="413" d="M154 0v1438h106v-1438h-106z" />
<glyph unicode="J" horiz-adv-x="464" d="M-45 -252q125 100 187.5 203.5t62.5 236.5v1250h106v-1252q0 -156 -64.5 -270.5t-211.5 -234.5z" />
<glyph unicode="K" horiz-adv-x="1163" d="M154 0v1438h106v-686l690 690l133 -8l-712 -709l721 -721l-144 -8l-688 690v-686h-106z" />
<glyph unicode="L" horiz-adv-x="1054" d="M154 0v1438h106v-1340h723l-8 -98h-821z" />
<glyph unicode="M" horiz-adv-x="1871" d="M72 0l252 1434l137 8l475 -1333l473 1325l139 8l252 -1442h-108l-226 1278l-462 -1274l-132 -8l-466 1280l-226 -1276h-108z" />
<glyph unicode="N" horiz-adv-x="1339" d="M154 0v1434l106 8l819 -1256v1252h107v-1434l-107 -8l-819 1255v-1251h-106z" />
<glyph unicode="O" horiz-adv-x="1540" d="M133 719q0 739 637 739t637 -739t-637 -739t-637 739zM240 719q0 -641 530 -641t530 641t-530 641t-530 -641z" />
<glyph unicode="P" horiz-adv-x="1159" d="M154 0v1438h354q579 0 579 -447q0 -233 -160.5 -354t-424.5 -121q-80 0 -242 19v-535h-106zM260 633q143 -18 242 -19q217 0 348 95.5t131 283.5q0 346 -477 346h-244v-706z" />
<glyph unicode="Q" horiz-adv-x="1540" d="M133 719q0 739 637 739t637 -739q0 -604 -430 -717q47 -152 105.5 -217.5t152.5 -65.5q63 0 162 35l14 -94q-111 -39 -199 -39q-119 0 -201.5 86t-138.5 279q-49 -6 -102 -6q-637 0 -637 739zM240 719q0 -641 530 -641t530 641t-530 641t-530 -641z" />
<glyph unicode="R" horiz-adv-x="1222" d="M154 0v1438h346q547 0 547 -424q0 -299 -279 -404l373 -606l-121 -8l-356 584q-74 -14 -170 -15q-53 0 -234 17v-582h-106zM260 682q166 -18 232 -18q205 0 326.5 89t121.5 265q0 168 -113.5 244.5t-334.5 76.5h-232v-657z" />
<glyph unicode="S" horiz-adv-x="1130" d="M133 1098q0 178 127 269t324 91q201 0 387 -84l-23 -98q-168 86 -364 86q-152 0 -248 -65.5t-96 -204.5q0 -92 79.5 -162t194.5 -118t229.5 -101.5t194.5 -141.5t80 -209q0 -190 -132 -285t-337 -95q-195 0 -389 83l22 99q182 -84 371 -84q158 0 258 69.5t100 219.5 q0 78 -57 140t-144 102l-188 87q-100 47 -187 94.5t-144.5 127.5t-57.5 180z" />
<glyph unicode="T" horiz-adv-x="1122" d="M10 1339l8 99h1094l-8 -99h-490v-1339h-106v1339h-498z" />
<glyph unicode="U" horiz-adv-x="1339" d="M154 422v1016h106v-1016q0 -178 109.5 -261t300.5 -83q188 0 298.5 83t110.5 261v1016h107v-1016q0 -229 -138.5 -335.5t-378 -106.5t-377.5 106.5t-138 335.5z" />
<glyph unicode="V" horiz-adv-x="1284" d="M51 1434l111 8l481 -1340l481 1340l109 -8l-522 -1434h-138z" />
<glyph unicode="W" horiz-adv-x="1953" d="M51 1434l111 8l379 -1340l377 1332l118 8l379 -1340l379 1340l109 -8l-420 -1434h-137l-369 1280l-369 -1280h-137z" />
<glyph unicode="X" horiz-adv-x="1314" d="M92 4l506 715l-506 715l123 8l442 -637l441 637l125 -8l-506 -715l506 -715l-123 -8l-443 637l-442 -637z" />
<glyph unicode="Y" horiz-adv-x="1191" d="M31 1434l123 8l442 -719l440 719l125 -8l-512 -813v-621h-106v621z" />
<glyph unicode="Z" horiz-adv-x="1179" d="M92 98l862 1241h-862l8 99h979l8 -99l-862 -1241h862l-8 -98h-979z" />
<glyph unicode="[" horiz-adv-x="536" d="M174 -164v1880h352l-8 -94h-242v-1692h250l-8 -94h-344z" />
<glyph unicode="\" horiz-adv-x="600" d="M-92 1708l104 8l680 -1872l-104 -8z" />
<glyph unicode="]" horiz-adv-x="536" d="M10 -164l8 94h242v1692h-250l8 94h344v-1880h-352z" />
<glyph unicode="^" horiz-adv-x="954" d="M31 471l381 967h131l381 -967l-111 -8l-336 876l-336 -876z" />
<glyph unicode="_" horiz-adv-x="917" d="M10 -154l8 95h889l-8 -95h-889z" />
<glyph unicode="`" horiz-adv-x="516" d="M113 1438h118l172 -324h-102z" />
<glyph unicode="a" horiz-adv-x="948" d="M92 223q0 70 25.5 121t89 96t184.5 74t301 41v129q0 213 -174 213q-123 0 -373 -88l-14 94q236 88 387 88q276 0 277 -307v-684h-78l-19 129q-161 -149 -351 -149h-3q-111 0 -181.5 61t-70.5 182zM195 229q0 -84 45 -119.5t104 -35.5q98 0 190.5 47t157.5 125v215 q-285 -20 -391 -81t-106 -151z" />
<glyph unicode="b" horiz-adv-x="1087" d="M154 63v1481l102 8v-700q238 139 379 139q156 0 248 -124t92 -382q0 -260 -112.5 -382.5t-295.5 -122.5h-4q-189 0 -409 83zM256 127q141 -53 311 -53q135 0 220 99t85 314q0 209 -64.5 309.5t-172.5 100.5q-127 0 -379 -147v-623z" />
<glyph unicode="c" horiz-adv-x="903" d="M113 485.5q0 262.5 120.5 384t311.5 121.5q131 0 266 -51l-14 -94q-131 51 -246 51q-154 0 -245 -98.5t-91 -313.5q0 -213 91 -312t245 -99q106 0 246 51l14 -94q-135 -51 -266 -51q-190 0 -311 121.5t-121 384z" />
<glyph unicode="d" horiz-adv-x="1087" d="M113 485q0 260 112.5 383t294.5 123q147 0 311 -73v626l103 8v-1552h-82l-21 119q-238 -139 -378 -139q-156 0 -248 123.5t-92 381.5zM215 483q0 -209 64.5 -309t173.5 -100q127 0 378 147v602q-174 74 -311 74q-135 0 -220 -99.5t-85 -314.5z" />
<glyph unicode="e" horiz-adv-x="1005" d="M113 485q0 262 112.5 384t306.5 122q186 0 287 -143q73 -105 74 -271q0 -61 -10 -131h-668q16 -370 336 -370h2q127 0 283 57l14 -94q-162 -59 -305 -59q-193 0 -312.5 120.5t-119.5 384.5zM217 541h574v26q0 151 -65 237q-71 93 -194 93q-295 0 -315 -356z" />
<glyph unicode="f" horiz-adv-x="681" d="M51 877l8 94h158v246q0 335 268 335h2q84 0 185 -30l-10 -92q-97 28 -162 28h-4q-102 0 -139.5 -68.5t-37.5 -185.5v-233h320l-8 -94h-312v-877h-102v877h-166z" />
<glyph unicode="g" horiz-adv-x="1030" d="M92 -188q0 78 49 152.5t144 123.5q-76 47 -76 139t92 162q-162 80 -162 283q0 147 90 233t265 86q78 0 149 -20h295l-8 -94h-146q63 -78 64 -205q0 -147 -90 -233.5t-264 -86.5q-59 0 -101 8q-83 -69 -83 -130q0 -8 1 -16q12 -69 140 -69h100q199 0 303 -69.5t104 -194.5 q0 -135 -131 -229t-372 -94q-174 0 -268.5 72.5t-94.5 181.5zM195 -188q0 -68 67.5 -114t192.5 -46q193 0 297 67.5t104 161.5q0 80 -78 125t-227 45h-100q-31 0 -72 4q-90 -47 -137 -112t-47 -131zM242 672q0 -102 64.5 -164t187 -62t187 61.5t64.5 164.5 q0 104 -63.5 164.5t-188 60.5t-188 -60.5t-63.5 -164.5z" />
<glyph unicode="h" horiz-adv-x="1064" d="M154 0v1544l102 8v-700q238 139 379 139q119 0 197.5 -74.5t78.5 -246.5v-670h-102v670q0 111 -48 169t-126 58q-127 0 -379 -147v-750h-102z" />
<glyph unicode="i" horiz-adv-x="409" d="M127 1222.5q0 34.5 22.5 56t55.5 21.5t55.5 -21.5t22.5 -56t-22.5 -56t-55.5 -21.5t-55.5 21.5t-22.5 56zM154 0v967l102 8v-975h-102z" />
<glyph unicode="j" horiz-adv-x="481" d="M-14 -379q119 98 179 197.5t60 228.5v920l103 8v-930q0 -150 -62.5 -261.5t-204.5 -225.5zM199 1222.5q0 34.5 21.5 56t56 21.5t56 -21.5t21.5 -56t-21.5 -56t-56 -21.5t-56 21.5t-21.5 56z" />
<glyph unicode="k" horiz-adv-x="935" d="M154 0v1544l102 8v-1017l477 440l133 -8l-497 -459l546 -504l-143 -8l-516 477v-473h-102z" />
<glyph unicode="l" horiz-adv-x="563" d="M154 213v1331l102 8v-1341q0 -109 63 -130q19 -6 46 -6q65 0 178 36l10 -93q-120 -38 -195 -38h-4q-200 0 -200 233z" />
<glyph unicode="m" horiz-adv-x="1638" d="M154 0v967l102 8v-123q223 139 356 139q164 0 224 -137q229 137 391 137q111 0 184.5 -75.5t73.5 -245.5v-670h-103v670q0 111 -44 169t-117 58q-160 0 -359 -131q8 -35 8 -96v-670h-102v670q0 111 -44 169t-118 58q-117 0 -350 -147v-750h-102z" />
<glyph unicode="n" horiz-adv-x="1064" d="M154 0v967l102 8v-123q238 139 379 139q119 0 197.5 -74.5t78.5 -246.5v-670h-102v670q0 111 -48 169t-126 58q-127 0 -379 -147v-750h-102z" />
<glyph unicode="o" horiz-adv-x="1103" d="M113 485q0 254 116.5 380t323.5 126q205 0 321.5 -126t116.5 -380q0 -256 -116.5 -380.5t-321.5 -124.5q-207 0 -323.5 124.5t-116.5 380.5zM215 485q0 -209 90 -310t248 -101t247 102.5t89 309t-90 309t-246 102.5q-158 0 -248 -102.5t-90 -309.5z" />
<glyph unicode="p" horiz-adv-x="1087" d="M154 -426v1393l102 8v-123q238 139 379 139q156 0 248 -124t92 -382q0 -260 -112.5 -382.5t-295.5 -122.5q-147 0 -311 73v-471zM256 147q172 -73 307 -73h4q135 0 220 99t85 314q0 209 -64.5 309.5t-172.5 100.5q-127 0 -379 -147v-603z" />
<glyph unicode="q" horiz-adv-x="1087" d="M113 485q0 260 112.5 383t294.5 123q190 0 414 -84v-1325l-103 -8v545q-238 -139 -378 -139q-156 0 -248 123.5t-92 381.5zM215 483q0 -209 64.5 -309t173.5 -100q127 0 378 147v623q-141 53 -311 53q-135 0 -220 -99.5t-85 -314.5z" />
<glyph unicode="r" horiz-adv-x="718" d="M154 0v967l102 8v-197q84 117 147.5 165t132 48t162.5 -22l-14 -95q-82 20 -124 25q-5 1 -11 1q-37 0 -78 -24q-47 -28 -84 -69t-117 -141q-8 -12 -14 -19v-647h-102z" />
<glyph unicode="s" horiz-adv-x="858" d="M133 739q0 125 88 188.5t221 63.5q143 0 273 -61l-15 -94q-123 61 -258 61q-206 0 -206 -156q0 -61 52 -106t128 -76t150.5 -64.5t126.5 -95t52 -147.5q0 -135 -93 -203.5t-236 -68.5q-139 0 -273 61l15 94q133 -61 268 -61q217 0 217 178q0 61 -52 105t-127 75 t-150.5 65.5t-128 95t-52.5 146.5z" />
<glyph unicode="t" horiz-adv-x="749" d="M51 877l8 94h158v307l102 8v-315h320l-8 -94h-312v-553q0 -250 185 -250q78 0 164 24l10 -88q-97 -30 -179 -30h-5q-150 0 -213.5 95t-63.5 240v562h-166z" />
<glyph unicode="u" horiz-adv-x="1064" d="M154 301v666l102 8v-674q0 -111 48 -169t126 -58q127 0 379 147v746l102 8v-975h-82l-20 119q-238 -139 -379 -139q-119 0 -197.5 74.5t-78.5 246.5z" />
<glyph unicode="v" horiz-adv-x="954" d="M31 967l110 8l336 -877l336 877l111 -8l-381 -967h-131z" />
<glyph unicode="w" horiz-adv-x="1511" d="M31 967l110 8l275 -877l272 869l133 8l275 -877l274 877l111 -8l-320 -967h-131l-274 877l-275 -877h-131z" />
<glyph unicode="x" horiz-adv-x="909" d="M41 4l352 479l-352 484l123 8l293 -410l295 410l116 -8l-352 -480l352 -483l-123 -8l-292 410l-295 -410z" />
<glyph unicode="y" horiz-adv-x="954" d="M31 967l110 8l336 -877l336 877l111 -8l-549 -1393l-107 8l168 418h-24z" />
<glyph unicode="z" horiz-adv-x="884" d="M72 86l606 791h-567l8 94h684l8 -86l-606 -791h608l-8 -94h-725z" />
<glyph unicode="{" horiz-adv-x="659" d="M51 729l8 94h56q96 4 131 72t35 182v303q0 72 13 127.5t47 106.5t101.5 77.5t165.5 24.5l-8 -94q-129 0 -173 -66.5t-44 -187.5v-283q0 -240 -143 -309q143 -70 143 -309v-283q0 -121 44 -188.5t181 -65.5l-8 -94q-180 -2 -249.5 91t-69.5 245v303q0 117 -37 185.5 t-140 68.5h-53z" />
<glyph unicode="|" horiz-adv-x="450" d="M174 -172v1888l102 8v-1888z" />
<glyph unicode="}" horiz-adv-x="659" d="M51 -164l8 94q129 0 173 66.5t44 187.5v283q0 240 144 309q-143 70 -144 309v283q0 121 -44 188.5t-181 65.5l8 94q180 2 250 -91t70 -245v-303q0 -117 37 -185.5t139 -68.5h53l-8 -94h-55q-96 -4 -131 -71.5t-35 -182.5v-303q0 -72 -13.5 -127t-47 -106.5t-101.5 -78 t-166 -24.5z" />
<glyph unicode="~" d="M82 582q74 266 262 266q74 0 141.5 -35t110.5 -78t99.5 -77.5t109.5 -34.5q61 0 97 48t67 140l100 -16q-74 -266 -262 -267q-74 0 -141.5 35t-109.5 78t-98.5 78t-111.5 35q-61 0 -97 -48.5t-67 -140.5z" />
<glyph unicode="&#xa1;" horiz-adv-x="704" d="M266 895q0 37 24.5 61.5t61.5 24.5t61.5 -24.5t24.5 -61.5t-24.5 -61.5t-61.5 -24.5t-61.5 24.5t-24.5 61.5zM297 -467l8 1073l94 8l9 -1081h-111z" />
<glyph unicode="&#xa2;" horiz-adv-x="997" d="M92 922q0 254 121 384t317 148v225l95 9v-230q143 -6 280 -53l-14 -94q-152 53 -293 53q-178 0 -290.5 -106.5t-112.5 -336t112.5 -336t290.5 -106.5q141 0 293 53l14 -94q-137 -49 -280 -53v-219l-95 -8v229q-197 18 -317.5 148.5t-120.5 386.5z" />
<glyph unicode="&#xa3;" horiz-adv-x="1058" d="M92 627l8 94h297q-10 35 -48 113.5t-62.5 153.5t-24.5 140q0 141 69.5 235.5t223.5 94.5q170 0 340 -51l-23 -98q-168 51 -317 51q-84 0 -135 -54.5t-51 -152.5q0 -78 65.5 -215t77.5 -217h387l-8 -94h-377q-6 -170 -74.5 -285t-214.5 -244h742l-9 -98h-856l-8 98 q113 104 168 167t98 157t48 205h-316z" />
<glyph unicode="&#xa4;" d="M129 346l147 148q-70 92 -69 227q0 133 69 227l-147 148l76 63l141 -141q96 70 227 69q127 0 228 -69l141 141l76 -63l-148 -148q70 -100 70 -227q0 -131 -70 -227l148 -148l-74 -65l-143 143q-94 -70 -228 -70q-135 0 -227 70l-141 -141zM309 721q0 -121 74 -196.5 t190.5 -75.5t190.5 75.5t74 196.5t-74 196.5t-190.5 75.5t-190.5 -75.5t-74 -196.5z" />
<glyph unicode="&#xa5;" horiz-adv-x="1191" d="M31 1434l123 8l442 -719l440 719l125 -8l-448 -713h323l-8 -94h-375l-4 -6v-240h387l-8 -94h-379v-287h-106v287h-396l9 94h387v240l-4 6h-392l9 94h323z" />
<glyph unicode="&#xa6;" horiz-adv-x="450" d="M174 -172v780l102 8v-780zM174 936v780l102 8v-780z" />
<glyph unicode="&#xa7;" horiz-adv-x="1183" d="M113 981q0 229 146.5 353t373.5 124q184 0 377 -84l-25 -96q-188 82 -352 82q-37 0 -53 -2q-29 -158 10 -305.5t117 -265.5l159 -230q82 -113 143.5 -249t61.5 -273q0 -229 -146.5 -353t-373.5 -124q-184 0 -377 84l25 96q188 -82 352 -82q35 0 53 2q29 158 -10 304.5 t-117 263.5l-160 232q-82 114 -143 250t-61 273zM219 981q0 -117 59.5 -242t139.5 -238l157 -236q78 -122 120 -274.5t20 -309.5q115 39 182.5 128t67.5 226q0 117 -59.5 241.5t-140.5 238.5t-158 235.5t-120 273.5t-20 311q-115 -39 -181.5 -129t-66.5 -225z" />
<glyph unicode="&#xa8;" horiz-adv-x="700" d="M113 1222.5q0 34.5 21.5 56t56 21.5t56 -21.5t21.5 -56t-21.5 -56t-56 -21.5t-56 21.5t-21.5 56zM494 1222.5q0 34.5 21.5 56t56 21.5t56 -21.5t21.5 -56t-21.5 -56t-56 -21.5t-56 21.5t-21.5 56z" />
<glyph unicode="&#xa9;" horiz-adv-x="1622" d="M72 719q0 328 205.5 533.5t533.5 205.5t533.5 -205.5t205.5 -533.5t-205.5 -533.5t-533.5 -205.5t-533.5 205.5t-205.5 533.5zM174 719q0 -285 178 -465t459 -180t459 180t178 465t-178 465t-459 180t-459 -180t-178 -465zM444 719q0 209 105.5 305t273.5 96 q119 0 232 -41l-15 -94q-106 41 -217 41q-123 0 -199.5 -73.5t-76.5 -233.5t77.5 -234.5t198.5 -74.5q111 0 217 41l15 -95q-113 -41 -232 -41q-168 0 -273.5 97.5t-105.5 306.5z" />
<glyph unicode="&#xaa;" horiz-adv-x="612" d="M57 979q0 92 79 142t286 67v67q0 117 -98 117q-78 0 -228 -51l-14 84q145 53 252 53q184 0 184 -198v-426h-72l-14 73q-100 -86 -213 -86q-70 0 -116 40t-46 118zM150 985q0 -84 83 -84q106 0 189 88v123q-156 -12 -214 -44t-58 -83z" />
<glyph unicode="&#xab;" horiz-adv-x="907" d="M51 440l8 95l381 380l68 -77l-363 -353l363 -352l-68 -78zM399 440l9 95l380 380l68 -77l-362 -353l362 -352l-68 -78z" />
<glyph unicode="&#xac;" d="M82 674l8 94h971v-530l-103 -11v447h-876z" />
<glyph unicode="&#xad;" horiz-adv-x="542" d="M72 438l8 94h391l-8 -94h-391z" />
<glyph unicode="&#xae;" horiz-adv-x="884" d="M72 1087.5q0 163.5 103.5 267t267 103.5t267 -103.5t103.5 -267t-103.5 -267t-267 -103.5t-267 103.5t-103.5 267zM150 1087.5q0 -131.5 81.5 -215.5t210.5 -84t211 84t82 215.5t-82 215t-211 83.5t-210.5 -83.5t-81.5 -215zM305 889v393h123q164 0 164 -131 q0 -76 -74 -115q12 -80 51 -80q20 0 47 11l11 -70q-37 -14 -72 -14q-86 0 -117 135h-12q-8 0 -41 4v-133h-80zM385 1094q20 -4 41 -4q37 0 61.5 17t24.5 46q0 59 -84 59h-43v-118z" />
<glyph unicode="&#xaf;" horiz-adv-x="817" d="M113 1180l8 90h584l-9 -90h-583z" />
<glyph unicode="&#xb0;" horiz-adv-x="653" d="M68 1198q0 115 71.5 187.5t186 72.5t187.5 -72.5t73 -187.5t-73 -186.5t-187 -71.5q-113 0 -185.5 72.5t-72.5 185.5zM170 1198q0 -72 43 -118t112.5 -46t113.5 46t44 118q0 74 -44 120t-113.5 46t-112.5 -46t-43 -120z" />
<glyph unicode="&#xb1;" d="M82 0l8 94h975l-8 -94h-975zM82 674l8 94h432v436l103 8v-444h440l-6 -94h-434v-436l-103 -11v447h-440z" />
<glyph unicode="&#xb2;" horiz-adv-x="638" d="M45 1028q227 176 321.5 276.5t94.5 188.5q0 154 -178 154q-106 0 -209 -50l-19 89q111 49 234 49q119 0 194.5 -58.5t75.5 -181.5q0 -104 -92 -208.5t-301 -258.5h414l-7 -86h-522z" />
<glyph unicode="&#xb3;" horiz-adv-x="632" d="M47 977l21 86q125 -49 231 -49q178 0 178 127q0 84 -115 143h-182l6 84h170q96 76 97 160q0 119 -164 119q-106 0 -221 -50l-21 86q117 51 242 52q117 0 188.5 -50.5t71.5 -152.5q0 -117 -113 -201q137 -70 137 -194q0 -104 -76.5 -157.5t-197.5 -53.5q-123 0 -252 51z " />
<glyph unicode="&#xb4;" horiz-adv-x="516" d="M113 1114l172 324h118l-188 -324h-102z" />
<glyph unicode="&#xb6;" horiz-adv-x="1030" d="M72 1118.5q0 141.5 89 230.5t230 89h639l-8 -99h-133v-1339h-107v1339h-168v-1339h-106v799h-117q-141 0 -230 89t-89 230.5z" />
<glyph unicode="&#xb7;" horiz-adv-x="397" d="M113 721q0 37 24.5 61.5t61.5 24.5t61.5 -24.5t24.5 -61.5t-24.5 -61.5t-61.5 -24.5t-61.5 24.5t-24.5 61.5z" />
<glyph unicode="&#xb8;" horiz-adv-x="581" d="M113 -420l16 88q53 -20 115 -20q121 0 121 80q0 78 -84 77q-25 0 -66 -10l-63 64l86 161h114l-80 -131q12 2 35 2q76 0 119 -44t43 -119.5t-61.5 -122.5t-157.5 -47q-69 -1 -137 22z" />
<glyph unicode="&#xb9;" horiz-adv-x="608" d="M41 942l6 86h215v594l-221 -84v96l227 86h88v-692h222l-7 -86h-530z" />
<glyph unicode="&#xba;" horiz-adv-x="708" d="M70 1138.5q0 159.5 75.5 239.5t208.5 80t209 -80t76 -239.5t-76 -238.5t-209 -79t-208.5 79t-75.5 238.5zM166 1139q0 -231 188.5 -231.5t188.5 231.5q0 233 -188.5 233t-188.5 -233z" />
<glyph unicode="&#xbb;" horiz-adv-x="907" d="M51 133l363 352l-363 353l68 77l389 -385l-8 -94l-381 -381zM399 133l363 352l-363 353l68 77l389 -385l-8 -94l-381 -381z" />
<glyph unicode="&#xbc;" horiz-adv-x="1507" d="M51 659l6 86h215v594l-221 -84v97l228 86h88v-693h221l-6 -86h-531zM291 0l872 1438h109l-871 -1438h-110zM817 266q100 117 147.5 234.5t47.5 277.5h96q0 -147 -41 -267t-145 -245h264v203l94 8v-211h176l-8 -86h-168v-180h-94v180h-361z" />
<glyph unicode="&#xbd;" horiz-adv-x="1519" d="M51 659l6 86h215v594l-221 -84v97l228 86h88v-693h221l-6 -86h-531zM291 0l872 1438h109l-871 -1438h-110zM934 86q227 176 321.5 276.5t94.5 188.5q0 154 -179 154q-106 0 -208 -50l-19 88q111 49 234 50q119 0 194.5 -58.5t75.5 -181.5q0 -104 -92 -208.5t-301 -258.5 h413l-6 -86h-522z" />
<glyph unicode="&#xbe;" horiz-adv-x="1468" d="M51 694l21 86q125 -49 231 -49q178 0 178 127q0 84 -114 143h-183l6 84h170q96 76 97 160q0 119 -164 119q-106 0 -221 -49l-21 86q117 51 242 51q117 0 188.5 -50t71.5 -153q0 -117 -113 -200q137 -70 138 -195q0 -104 -77 -157.5t-198 -53.5q-123 0 -252 51zM233 0 l873 1438h108l-870 -1438h-111zM778 266q100 117 147.5 234.5t47.5 277.5h96q0 -147 -41 -267t-145 -245h264v203l94 8v-211h176l-8 -86h-168v-180h-94v180h-361z" />
<glyph unicode="&#xbf;" horiz-adv-x="960" d="M74 -119q0 143 97 276.5t284 186.5l2 262l94 8l2 -335q-92 -23 -161.5 -60t-108.5 -77t-63.5 -89t-32 -89t-7.5 -81q0 -125 87 -198.5t229 -73.5q152 0 372 63l23 -98q-203 -63 -379 -63q-203 0 -320.5 97t-117.5 271zM418 895q0 37 24.5 61.5t61.5 24.5t61.5 -24.5 t24.5 -61.5t-24.5 -61.5t-61.5 -24.5t-61.5 24.5t-24.5 61.5z" />
<glyph unicode="&#xc0;" horiz-adv-x="1290" d="M51 0l522 1434l140 8l526 -1442h-115l-139 387h-684l-139 -387h-111zM336 485h614l-307 854zM350 1823h148l233 -262h-117z" />
<glyph unicode="&#xc1;" horiz-adv-x="1290" d="M51 0l522 1434l140 8l526 -1442h-115l-139 387h-684l-139 -387h-111zM336 485h614l-307 854zM555 1561l233 262h148l-264 -262h-117z" />
<glyph unicode="&#xc2;" horiz-adv-x="1290" d="M51 0l522 1434l140 8l526 -1442h-115l-139 387h-684l-139 -387h-111zM324 1561l274 262h90l275 -262h-138l-182 178l-182 -178h-137zM336 485h614l-307 854z" />
<glyph unicode="&#xc3;" horiz-adv-x="1290" d="M51 0l522 1434l140 8l526 -1442h-115l-139 387h-684l-139 -387h-111zM322 1554q14 76 66 125.5t118 49.5q80 0 155.5 -58.5t129.5 -58.5q61 0 90 96l86 -18q-16 -74 -67.5 -122t-115.5 -48q-80 0 -156.5 57t-129.5 57q-66 0 -92 -96zM336 485h614l-307 854z" />
<glyph unicode="&#xc4;" horiz-adv-x="1290" d="M51 0l522 1434l140 8l526 -1442h-115l-139 387h-684l-139 -387h-111zM336 485h614l-307 854zM375 1659q0 33 21.5 55.5t56 22.5t56 -22.5t21.5 -55.5t-21.5 -55.5t-56 -22.5t-56 22.5t-21.5 55.5zM756 1659q0 33 21.5 55.5t56 22.5t56 -22.5t21.5 -55.5t-21.5 -55.5 t-56 -22.5t-56 22.5t-21.5 55.5z" />
<glyph unicode="&#xc5;" horiz-adv-x="1290" d="M51 0l520 1427q-57 20 -89.5 68.5t-32.5 114.5q0 88 54 142t138 54q88 0 142.5 -54t54.5 -142q0 -63 -33 -111.5t-88 -68.5l522 -1430h-115l-139 387h-684l-139 -387h-111zM336 485h614l-307 854zM543 1610q0 -47 27.5 -77t70.5 -30q45 0 73.5 30t28.5 77 q0 49 -28.5 79.5t-73.5 30.5q-43 0 -70.5 -30.5t-27.5 -79.5z" />
<glyph unicode="&#xc6;" horiz-adv-x="1880" d="M-31 0l908 1438h911l-8 -99h-756v-581h662l-9 -99h-653v-561h764l-8 -98h-862v387h-584l-240 -387h-125zM395 485h523v842z" />
<glyph unicode="&#xc7;" horiz-adv-x="1245" d="M133 719q0 197 50 344t139.5 231t200 124t243.5 40q195 0 387 -76l-23 -98q-182 76 -364 76q-233 0 -379.5 -154.5t-146.5 -486.5t146 -486.5t380 -154.5q182 0 364 76l23 -99q-150 -59 -305 -71l-57 -95q12 2 34 2q76 0 119 -44t43 -119.5t-61.5 -122.5t-157.5 -47 q-70 0 -137 22l16 88q53 -20 115 -20q121 0 121 80q0 78 -84 77q-25 0 -66 -10l-63 64l63 121q-127 4 -231.5 47t-189.5 128t-132 228t-47 336z" />
<glyph unicode="&#xc8;" horiz-adv-x="1116" d="M154 0v1438h870l-8 -99h-756v-581h662l-9 -99h-653v-561h764l-8 -98h-862zM358 1823h148l233 -262h-116z" />
<glyph unicode="&#xc9;" horiz-adv-x="1116" d="M154 0v1438h870l-8 -99h-756v-581h662l-9 -99h-653v-561h764l-8 -98h-862zM440 1561l234 262h147l-264 -262h-117z" />
<glyph unicode="&#xca;" horiz-adv-x="1116" d="M154 0v1438h870l-8 -99h-756v-581h662l-9 -99h-653v-561h764l-8 -98h-862zM270 1561l275 262h90l274 -262h-137l-182 178l-182 -178h-138z" />
<glyph unicode="&#xcb;" horiz-adv-x="1116" d="M154 0v1438h870l-8 -99h-756v-581h662l-9 -99h-653v-561h764l-8 -98h-862zM322 1659q0 33 21.5 55.5t56 22.5t56 -22.5t21.5 -55.5t-21.5 -55.5t-56 -22.5t-56 22.5t-21.5 55.5zM702 1659q0 33 21.5 55.5t56.5 22.5t56.5 -22.5t21.5 -55.5t-21.5 -55.5t-56.5 -22.5 t-56.5 22.5t-21.5 55.5z" />
<glyph unicode="&#xcc;" horiz-adv-x="413" d="M-119 1823h148l233 -262h-117zM154 0v1438h106v-1438h-106z" />
<glyph unicode="&#xcd;" horiz-adv-x="413" d="M152 1561l233 262h147l-264 -262h-116zM154 0v1438h106v-1438h-106z" />
<glyph unicode="&#xce;" horiz-adv-x="413" d="M-113 1561l275 262h90l274 -262h-137l-182 178l-182 -178h-138zM154 0v1438h106v-1438h-106z" />
<glyph unicode="&#xcf;" horiz-adv-x="413" d="M-61 1659q0 33 22.5 55.5t55 22.5t55 -22.5t22.5 -55.5t-22.5 -55.5t-55 -22.5t-55 22.5t-22.5 55.5zM154 0v1438h106v-1438h-106zM319 1659q0 33 23 55.5t55.5 22.5t55 -22.5t22.5 -55.5t-22.5 -55.5t-55 -22.5t-55.5 22.5t-23 55.5z" />
<glyph unicode="&#xd0;" horiz-adv-x="1413" d="M10 674l8 90h136v674h481q645 0 645 -713q0 -371 -184.5 -558t-493.5 -187q-236 0 -448 47v647h-144zM260 109q164 -31 348 -31q258 0 412 162.5t154 484.5q0 614 -541 614h-373v-575h342l-8 -90h-334v-565z" />
<glyph unicode="&#xd1;" horiz-adv-x="1339" d="M154 0v1434l106 8l819 -1256v1252h107v-1434l-107 -8l-819 1255v-1251h-106zM348 1554q14 76 66.5 125.5t117.5 49.5q80 0 156 -58.5t129 -58.5q61 0 90 96l86 -18q-16 -74 -67.5 -122t-114.5 -48q-80 0 -156.5 57t-130.5 57q-66 0 -92 -96z" />
<glyph unicode="&#xd2;" horiz-adv-x="1540" d="M133 719q0 739 637 739t637 -739t-637 -739t-637 739zM240 719q0 -641 530 -641t530 641t-530 641t-530 -641zM518 1823h148l233 -262h-117z" />
<glyph unicode="&#xd3;" horiz-adv-x="1540" d="M133 719q0 739 637 739t637 -739t-637 -739t-637 739zM240 719q0 -641 530 -641t530 641t-530 641t-530 -641zM641 1561l233 262h148l-264 -262h-117z" />
<glyph unicode="&#xd4;" horiz-adv-x="1540" d="M133 719q0 739 637 739t637 -739t-637 -739t-637 739zM240 719q0 -641 530 -641t530 641t-530 641t-530 -641zM451 1561l274 262h90l275 -262h-138l-182 178l-182 -178h-137z" />
<glyph unicode="&#xd5;" horiz-adv-x="1540" d="M133 719q0 739 637 739t637 -739t-637 -739t-637 739zM240 719q0 -641 530 -641t530 641t-530 641t-530 -641zM449 1554q14 76 66 125.5t118 49.5q80 0 155.5 -58.5t129.5 -58.5q61 0 90 96l86 -18q-16 -74 -67.5 -122t-115.5 -48q-80 0 -156.5 57t-129.5 57 q-66 0 -93 -96z" />
<glyph unicode="&#xd6;" horiz-adv-x="1540" d="M133 719q0 739 637 739t637 -739t-637 -739t-637 739zM240 719q0 -641 530 -641t530 641t-530 641t-530 -641zM502 1659q0 33 21.5 55.5t56 22.5t56 -22.5t21.5 -55.5t-21.5 -55.5t-56 -22.5t-56 22.5t-21.5 55.5zM883 1659q0 33 21.5 55.5t56 22.5t56 -22.5t21.5 -55.5 t-21.5 -55.5t-56 -22.5t-56 22.5t-21.5 55.5z" />
<glyph unicode="&#xd7;" d="M129 346l375 375l-375 375l76 63l368 -368l369 368l76 -63l-375 -375l375 -375l-74 -65l-371 370l-368 -368z" />
<glyph unicode="&#xd8;" horiz-adv-x="1540" d="M133 719q0 739 637 739q229 0 381 -100l141 205l92 -47l-155 -224q178 -184 178 -573q0 -739 -637 -739q-229 0 -381 100l-141 -205l-92 47l153 223q-176 187 -176 574zM240 719q0 -319 133 -481l717 1034q-123 88 -320 88q-530 0 -530 -641zM451 166q123 -88 319 -88 q530 0 530 641q0 319 -135 481z" />
<glyph unicode="&#xd9;" horiz-adv-x="1339" d="M154 422v1016h106v-1016q0 -178 109.5 -261t300.5 -83q188 0 298.5 83t110.5 261v1016h107v-1016q0 -229 -138.5 -335.5t-378 -106.5t-377.5 106.5t-138 335.5zM418 1823h147l234 -262h-117z" />
<glyph unicode="&#xda;" horiz-adv-x="1339" d="M154 422v1016h106v-1016q0 -178 109.5 -261t300.5 -83q188 0 298.5 83t110.5 261v1016h107v-1016q0 -229 -138.5 -335.5t-378 -106.5t-377.5 106.5t-138 335.5zM541 1561l233 262h148l-265 -262h-116z" />
<glyph unicode="&#xdb;" horiz-adv-x="1339" d="M154 422v1016h106v-1016q0 -178 109.5 -261t300.5 -83q188 0 298.5 83t110.5 261v1016h107v-1016q0 -229 -138.5 -335.5t-378 -106.5t-377.5 106.5t-138 335.5zM350 1561l275 262h90l274 -262h-137l-182 178l-183 -178h-137z" />
<glyph unicode="&#xdc;" horiz-adv-x="1339" d="M154 422v1016h106v-1016q0 -178 109.5 -261t300.5 -83q188 0 298.5 83t110.5 261v1016h107v-1016q0 -229 -138.5 -335.5t-378 -106.5t-377.5 106.5t-138 335.5zM401 1659q0 33 22.5 55.5t55.5 22.5t55.5 -22.5t22.5 -55.5t-22.5 -55.5t-55.5 -22.5t-55.5 22.5t-22.5 55.5 zM782 1659q0 33 22.5 55.5t55.5 22.5t55.5 -22.5t22.5 -55.5t-22.5 -55.5t-55.5 -22.5t-55.5 22.5t-22.5 55.5z" />
<glyph unicode="&#xdd;" horiz-adv-x="1191" d="M31 1434l123 8l442 -719l440 719l125 -8l-512 -813v-621h-106v621zM467 1561l233 262h148l-264 -262h-117z" />
<glyph unicode="&#xde;" horiz-adv-x="1159" d="M154 0v1438h106v-267q162 18 242 19q264 0 424.5 -121t160.5 -352q0 -229 -161.5 -349t-423.5 -120q-80 0 -242 18v-266h-106zM260 365q143 -18 242 -19q217 0 348 92t131 280.5t-131 281t-348 92.5q-98 0 -242 -19v-708z" />
<glyph unicode="&#xdf;" horiz-adv-x="1116" d="M154 0v1174q0 186 93 282t261 96q162 0 246 -87t84 -224q0 -109 -64 -231l-112 -211q164 -41 253 -162t89 -266q0 -162 -105.5 -276.5t-292.5 -114.5q-86 0 -182 32l14 94q92 -33 168 -32q137 0 215 88t78 211q0 125 -81 223t-232 121l-41 76l139 260q49 94 49 190 t-57.5 155.5t-167.5 59.5q-119 0 -185.5 -72.5t-66.5 -211.5v-1174h-102z" />
<glyph unicode="&#xe0;" horiz-adv-x="948" d="M92 223q0 70 25.5 121t89 96t184.5 74t301 41v129q0 213 -174 213q-123 0 -373 -88l-14 94q236 88 387 88q276 0 277 -307v-684h-78l-19 129q-162 -150 -354 -149q-111 0 -181.5 61t-70.5 182zM195 229q0 -84 45 -119.5t104 -35.5q98 0 190.5 47t157.5 125v215 q-285 -20 -391 -81t-106 -151zM287 1438h119l172 -324h-103z" />
<glyph unicode="&#xe1;" horiz-adv-x="948" d="M92 223q0 70 25.5 121t89 96t184.5 74t301 41v129q0 213 -174 213q-123 0 -373 -88l-14 94q236 88 387 88q276 0 277 -307v-684h-78l-19 129q-162 -150 -354 -149q-111 0 -181.5 61t-70.5 182zM195 229q0 -84 45 -119.5t104 -35.5q98 0 190.5 47t157.5 125v215 q-285 -20 -391 -81t-106 -151zM369 1114l172 324h118l-188 -324h-102z" />
<glyph unicode="&#xe2;" horiz-adv-x="948" d="M92 223q0 70 25.5 121t89 96t184.5 74t301 41v129q0 213 -174 213q-123 0 -373 -88l-14 94q236 88 387 88q276 0 277 -307v-684h-78l-19 129q-162 -150 -354 -149q-111 0 -181.5 61t-70.5 182zM195 229q0 -84 45 -119.5t104 -35.5q98 0 190.5 47t157.5 125v215 q-285 -20 -391 -81t-106 -151zM195 1114l233 324h90l234 -324h-115l-164 234l-164 -234h-114z" />
<glyph unicode="&#xe3;" horiz-adv-x="948" d="M92 223q0 70 25.5 121t89 96t184.5 74t301 41v129q0 213 -174 213q-123 0 -373 -88l-14 94q236 88 387 88q276 0 277 -307v-684h-78l-19 129q-162 -150 -354 -149q-111 0 -181.5 61t-70.5 182zM164 1186q14 76 66.5 125t117.5 49q59 0 135 -58.5t109 -58.5q61 0 90 96 l86 -18q-16 -74 -67.5 -122t-114.5 -48q-59 0 -136 57.5t-110 57.5q-66 0 -92 -97zM195 229q0 -84 45 -119.5t104 -35.5q98 0 190.5 47t157.5 125v215q-285 -20 -391 -81t-106 -151z" />
<glyph unicode="&#xe4;" horiz-adv-x="948" d="M92 223q0 70 25.5 121t89 96t184.5 74t301 41v129q0 213 -174 213q-123 0 -373 -88l-14 94q236 88 387 88q276 0 277 -307v-684h-78l-19 129q-162 -150 -354 -149q-111 0 -181.5 61t-70.5 182zM195 229q0 -84 45 -119.5t104 -35.5q98 0 190.5 47t157.5 125v215 q-285 -20 -391 -81t-106 -151zM213 1222.5q0 34.5 22.5 56t55.5 21.5t55.5 -21.5t22.5 -56t-22.5 -56t-55.5 -21.5t-55.5 21.5t-22.5 56zM594 1222.5q0 34.5 22.5 56t55.5 21.5t55.5 -21.5t22.5 -56t-22.5 -56t-55.5 -21.5t-55.5 21.5t-22.5 56z" />
<glyph unicode="&#xe5;" horiz-adv-x="948" d="M92 223q0 70 25.5 121t89 96t184.5 74t301 41v129q0 213 -174 213q-123 0 -373 -88l-14 94q236 88 387 88q276 0 277 -307v-684h-78l-19 129q-162 -150 -354 -149q-111 0 -181.5 61t-70.5 182zM195 229q0 -84 45 -119.5t104 -35.5q98 0 190.5 47t157.5 125v215 q-285 -20 -391 -81t-106 -151zM279 1262q0 88 54 142t138 54q88 0 142.5 -54t54.5 -142q0 -84 -54.5 -138.5t-142.5 -54.5q-84 0 -138 54.5t-54 138.5zM373 1262q0 -47 27.5 -77t70.5 -30q45 0 73.5 29.5t28.5 77.5q0 49 -28.5 79.5t-73.5 30.5q-43 0 -70.5 -30.5 t-27.5 -79.5z" />
<glyph unicode="&#xe6;" horiz-adv-x="1585" d="M92 223q0 92 45 154.5t181.5 111t373.5 64.5v131q0 213 -174 213q-123 0 -373 -88l-14 94q236 88 387 88q207 0 254 -178q98 178 340 178q186 0 286.5 -143t63.5 -402h-667q16 -371 338 -370q127 0 282 57l15 -94q-162 -59 -306 -59q-260 0 -366 194q-211 -195 -414 -194 q-111 0 -181.5 61t-70.5 182zM195 229q0 -84 45 -119.5t104 -35.5q190 0 379 188q-27 82 -31 197q-285 -20 -391 -80t-106 -150zM797 541h573q6 170 -64.5 263t-193.5 93q-295 0 -315 -356z" />
<glyph unicode="&#xe7;" horiz-adv-x="903" d="M113 485q0 262 120.5 384t311.5 122q131 0 266 -51l-14 -94q-131 51 -246 51q-154 0 -245 -98.5t-91 -313.5q0 -213 91 -312t245 -99q106 0 246 51l14 -94q-100 -39 -209 -49l-55 -93q12 2 35 2q76 0 118.5 -44t42.5 -119.5t-61 -122.5t-158 -47q-70 0 -137 22l16 88 q53 -20 115 -20q121 0 121 80q0 78 -84 77q-25 0 -66 -10l-63 64l66 123q-170 14 -274.5 136.5t-104.5 366.5z" />
<glyph unicode="&#xe8;" horiz-adv-x="1005" d="M113 485q0 262 112.5 384t306.5 122q186 0 287 -143t64 -402h-668q16 -371 338 -370q127 0 283 57l14 -94q-162 -59 -305 -59q-193 0 -312.5 120.5t-119.5 384.5zM217 541h574q6 170 -65 263t-194 93q-295 0 -315 -356zM315 1438h119l172 -324h-102z" />
<glyph unicode="&#xe9;" horiz-adv-x="1005" d="M113 485q0 262 112.5 384t306.5 122q186 0 287 -143t64 -402h-668q16 -371 338 -370q127 0 283 57l14 -94q-162 -59 -305 -59q-193 0 -312.5 120.5t-119.5 384.5zM217 541h574q6 170 -65 263t-194 93q-295 0 -315 -356zM418 1114l172 324h119l-189 -324h-102z" />
<glyph unicode="&#xea;" horiz-adv-x="1005" d="M113 485q0 262 112.5 384t306.5 122q186 0 287 -143t64 -402h-668q16 -371 338 -370q127 0 283 57l14 -94q-162 -59 -305 -59q-193 0 -312.5 120.5t-119.5 384.5zM217 541h574q6 170 -65 263t-194 93q-295 0 -315 -356zM244 1114l233 324h90l234 -324h-115l-164 234 l-164 -234h-114z" />
<glyph unicode="&#xeb;" horiz-adv-x="1005" d="M113 485q0 262 112.5 384t306.5 122q186 0 287 -143t64 -402h-668q16 -371 338 -370q127 0 283 57l14 -94q-162 -59 -305 -59q-193 0 -312.5 120.5t-119.5 384.5zM217 541h574q6 170 -65 263t-194 93q-295 0 -315 -356zM262 1222.5q0 34.5 22.5 56t55.5 21.5t55.5 -21.5 t22.5 -56t-22.5 -56t-55.5 -21.5t-55.5 21.5t-22.5 56zM643 1222.5q0 34.5 22.5 56t55.5 21.5t55.5 -21.5t22.5 -56t-22.5 -56t-55.5 -21.5t-55.5 21.5t-22.5 56z" />
<glyph unicode="&#xec;" horiz-adv-x="409" d="M-33 1438h119l172 -324h-102zM154 0v967l102 8v-975h-102z" />
<glyph unicode="&#xed;" horiz-adv-x="409" d="M152 1114l172 324h118l-188 -324h-102zM154 0v967l102 8v-975h-102z" />
<glyph unicode="&#xee;" horiz-adv-x="409" d="M-74 1114l234 324h90l233 -324h-114l-164 234l-164 -234h-115zM154 0v967l102 8v-975h-102z" />
<glyph unicode="&#xef;" horiz-adv-x="409" d="M-63 1222.5q0 34.5 21.5 56t56 21.5t56 -21.5t21.5 -56t-21.5 -56t-56 -21.5t-56 21.5t-21.5 56zM154 0v967l102 8v-975h-102zM317 1222.5q0 34.5 21.5 56t56.5 21.5t56.5 -21.5t21.5 -56t-21.5 -56t-56.5 -21.5t-56.5 21.5t-21.5 56z" />
<glyph unicode="&#xf0;" horiz-adv-x="1124" d="M113 485q0 260 112.5 383t294.5 123q137 0 295 -65q-61 170 -166 321l-323 -149l-33 88l299 139q-98 121 -240 227h148q96 -76 182 -186l307 143l33 -88l-283 -131q252 -375 252 -772q0 -289 -113.5 -413.5t-324.5 -124.5q-440 -1 -440 505zM215 485q0 -412 338 -411 q223 0 299 194.5t-4 550.5q-193 78 -328 78q-137 0 -221 -98.5t-84 -313.5z" />
<glyph unicode="&#xf1;" horiz-adv-x="1064" d="M154 0v967l102 8v-123q238 139 379 139q119 0 197.5 -74.5t78.5 -246.5v-670h-102v670q0 111 -48 169t-126 58q-127 0 -379 -147v-750h-102zM229 1186q14 76 66.5 125t118.5 49q59 0 135 -58.5t108 -58.5q61 0 91 96l86 -18q-16 -74 -67.5 -122t-115.5 -48 q-59 0 -136 57.5t-109 57.5q-66 0 -93 -97z" />
<glyph unicode="&#xf2;" horiz-adv-x="1103" d="M113 485q0 254 116.5 380t323.5 126q205 0 321.5 -126t116.5 -380q0 -256 -116.5 -380.5t-321.5 -124.5q-207 0 -323.5 124.5t-116.5 380.5zM215 485q0 -209 90 -310t248 -101t247 102.5t89 309t-90 309t-246 102.5q-158 0 -248 -102.5t-90 -309.5zM365 1438h118 l172 -324h-102z" />
<glyph unicode="&#xf3;" horiz-adv-x="1103" d="M113 485q0 254 116.5 380t323.5 126q205 0 321.5 -126t116.5 -380q0 -256 -116.5 -380.5t-321.5 -124.5q-207 0 -323.5 124.5t-116.5 380.5zM215 485q0 -209 90 -310t248 -101t247 102.5t89 309t-90 309t-246 102.5q-158 0 -248 -102.5t-90 -309.5zM446 1114l172 324h119 l-188 -324h-103z" />
<glyph unicode="&#xf4;" horiz-adv-x="1103" d="M113 485q0 254 116.5 380t323.5 126q205 0 321.5 -126t116.5 -380q0 -256 -116.5 -380.5t-321.5 -124.5q-207 0 -323.5 124.5t-116.5 380.5zM215 485q0 -209 90 -310t248 -101t247 102.5t89 309t-90 309t-246 102.5q-158 0 -248 -102.5t-90 -309.5zM272 1114l234 324h90 l233 -324h-114l-164 234l-164 -234h-115z" />
<glyph unicode="&#xf5;" horiz-adv-x="1103" d="M113 485q0 254 116.5 380t323.5 126q205 0 321.5 -126t116.5 -380q0 -256 -116.5 -380.5t-321.5 -124.5q-207 0 -323.5 124.5t-116.5 380.5zM215 485q0 -209 90 -310t248 -101t247 102.5t89 309t-90 309t-246 102.5q-158 0 -248 -102.5t-90 -309.5zM250 1186 q14 76 66.5 125t117.5 49q59 0 135 -58.5t109 -58.5q61 0 90 96l86 -18q-16 -74 -67.5 -122t-114.5 -48q-59 0 -136 57.5t-110 57.5q-66 0 -92 -97z" />
<glyph unicode="&#xf6;" horiz-adv-x="1103" d="M113 485q0 254 116.5 380t323.5 126q205 0 321.5 -126t116.5 -380q0 -256 -116.5 -380.5t-321.5 -124.5q-207 0 -323.5 124.5t-116.5 380.5zM215 485q0 -209 90 -310t248 -101t247 102.5t89 309t-90 309t-246 102.5q-158 0 -248 -102.5t-90 -309.5zM285 1222.5 q0 34.5 21.5 56t56 21.5t56 -21.5t21.5 -56t-21.5 -56t-56 -21.5t-56 21.5t-21.5 56zM666 1222.5q0 34.5 21.5 56t56 21.5t56 -21.5t21.5 -56t-21.5 -56t-56 -21.5t-56 21.5t-21.5 56z" />
<glyph unicode="&#xf7;" d="M82 674l8 94h975l-8 -94h-975zM487 295q0 37 25 61.5t61.5 24.5t61 -24.5t24.5 -61.5t-24.5 -61.5t-61 -24.5t-61.5 24.5t-25 61.5zM487 1147q0 37 25 61.5t61.5 24.5t61 -24.5t24.5 -61.5t-24.5 -61.5t-61 -24.5t-61.5 24.5t-25 61.5z" />
<glyph unicode="&#xf8;" horiz-adv-x="1103" d="M113 485q0 254 116.5 380t323.5 126q131 0 225 -51l99 156l88 -43l-107 -170q133 -129 133 -398q0 -256 -116.5 -380.5t-321.5 -124.5q-133 0 -229 51l-97 -156l-88 43l107 170q-133 129 -133 397zM215 485q0 -203 86 -307l424 676q-74 43 -172 43q-158 0 -248 -102.5 t-90 -309.5zM377 115q76 -41 176 -41q158 0 247 102.5t89 308.5q0 197 -88 306z" />
<glyph unicode="&#xf9;" horiz-adv-x="1064" d="M154 301v666l102 8v-674q0 -111 48 -169t126 -58q127 0 379 147v746l102 8v-975h-82l-20 119q-238 -139 -379 -139q-119 0 -197.5 74.5t-78.5 246.5zM346 1438h119l172 -324h-102z" />
<glyph unicode="&#xfa;" horiz-adv-x="1064" d="M154 301v666l102 8v-674q0 -111 48 -169t126 -58q127 0 379 147v746l102 8v-975h-82l-20 119q-238 -139 -379 -139q-119 0 -197.5 74.5t-78.5 246.5zM428 1114l172 324h119l-189 -324h-102z" />
<glyph unicode="&#xfb;" horiz-adv-x="1064" d="M154 301v666l102 8v-674q0 -111 48 -169t126 -58q127 0 379 147v746l102 8v-975h-82l-20 119q-238 -139 -379 -139q-119 0 -197.5 74.5t-78.5 246.5zM254 1114l233 324h91l233 -324h-115l-164 234l-163 -234h-115z" />
<glyph unicode="&#xfc;" horiz-adv-x="1064" d="M154 301v666l102 8v-674q0 -111 48 -169t126 -58q127 0 379 147v746l102 8v-975h-82l-20 119q-238 -139 -379 -139q-119 0 -197.5 74.5t-78.5 246.5zM264 1222.5q0 34.5 21.5 56t56.5 21.5t56.5 -21.5t21.5 -56t-21.5 -56t-56.5 -21.5t-56.5 21.5t-21.5 56zM645 1222.5 q0 34.5 21.5 56t56.5 21.5t56.5 -21.5t21.5 -56t-21.5 -56t-56.5 -21.5t-56.5 21.5t-21.5 56z" />
<glyph unicode="&#xfd;" horiz-adv-x="954" d="M31 967l110 8l336 -877l336 877l111 -8l-549 -1393l-107 8l168 418h-24zM393 1114l172 324h119l-188 -324h-103z" />
<glyph unicode="&#xfe;" horiz-adv-x="1087" d="M154 -426v1970l102 8v-700q238 139 379 139q156 0 248 -124t92 -382q0 -260 -112.5 -382.5t-295.5 -122.5q-147 0 -311 73v-471zM256 147q174 -74 311 -73q135 0 220 99t85 314q0 209 -64.5 309.5t-172.5 100.5q-127 0 -379 -147v-603z" />
<glyph unicode="&#xff;" horiz-adv-x="954" d="M31 967l110 8l336 -877l336 877l111 -8l-549 -1393l-107 8l168 418h-24zM209 1222.5q0 34.5 22.5 56t55 21.5t55.5 -21.5t23 -56t-23 -56t-55.5 -21.5t-55 21.5t-22.5 56zM590 1222.5q0 34.5 22.5 56t55 21.5t55 -21.5t22.5 -56t-22.5 -56t-55 -21.5t-55 21.5t-22.5 56z " />
<glyph unicode="&#x152;" horiz-adv-x="2263" d="M133 719q0 739 637 739q387 0 530 -287v267h871l-8 -99h-756v-581h661l-8 -99h-653v-561h764l-8 -98h-863v264q-143 -285 -530 -284q-637 0 -637 739zM240 719q0 -641 530 -641t530 641v35q-14 606 -530 606q-530 0 -530 -641z" />
<glyph unicode="&#x153;" horiz-adv-x="1781" d="M113 485q0 254 116.5 380t323.5 126q291 0 385 -243q90 244 371 243q186 0 286.5 -143t63.5 -402h-668q16 -371 338 -370q127 0 283 57l14 -94q-162 -59 -305 -59q-287 0 -381 245q-94 -246 -387 -245q-207 0 -323.5 124.5t-116.5 380.5zM215 485q0 -209 90 -310 t248 -101t247 102.5t89 309t-90 309t-246 102.5q-158 0 -248 -102.5t-90 -309.5zM993 541h574q6 170 -64.5 263t-193.5 93q-296 0 -316 -356z" />
<glyph unicode="&#x178;" horiz-adv-x="1191" d="M31 1434l123 8l442 -719l440 719l125 -8l-512 -813v-621h-106v621zM328 1659q0 33 22.5 55.5t55 22.5t55 -22.5t22.5 -55.5t-22.5 -55.5t-55 -22.5t-55 22.5t-22.5 55.5zM709 1659q0 33 22.5 55.5t55 22.5t55 -22.5t22.5 -55.5t-22.5 -55.5t-55 -22.5t-55 22.5 t-22.5 55.5z" />
<glyph unicode="&#x2c6;" horiz-adv-x="782" d="M113 1114l233 324h90l234 -324h-115l-164 234l-164 -234h-114z" />
<glyph unicode="&#x2dc;" horiz-adv-x="829" d="M113 1186q14 76 66 125t118 49q59 0 135 -58.5t109 -58.5q61 0 90 96l86 -18q-16 -74 -67.5 -122t-114.5 -48q-59 0 -136 57.5t-110 57.5q-66 0 -92 -97z" />
<glyph unicode="&#x2000;" horiz-adv-x="911" />
<glyph unicode="&#x2001;" horiz-adv-x="1823" />
<glyph unicode="&#x2002;" horiz-adv-x="911" />
<glyph unicode="&#x2003;" horiz-adv-x="1823" />
<glyph unicode="&#x2004;" horiz-adv-x="607" />
<glyph unicode="&#x2005;" horiz-adv-x="455" />
<glyph unicode="&#x2006;" horiz-adv-x="303" />
<glyph unicode="&#x2007;" horiz-adv-x="303" />
<glyph unicode="&#x2008;" horiz-adv-x="227" />
<glyph unicode="&#x2009;" horiz-adv-x="364" />
<glyph unicode="&#x200a;" horiz-adv-x="101" />
<glyph unicode="&#x2010;" horiz-adv-x="542" d="M72 438l8 94h391l-8 -94h-391z" />
<glyph unicode="&#x2011;" horiz-adv-x="542" d="M72 438l8 94h391l-8 -94h-391z" />
<glyph unicode="&#x2012;" horiz-adv-x="542" d="M72 438l8 94h391l-8 -94h-391z" />
<glyph unicode="&#x2013;" horiz-adv-x="1155" d="M51 438l8 94h1045l-8 -94h-1045z" />
<glyph unicode="&#x2014;" horiz-adv-x="2172" d="M51 438l8 94h2042l-8 -94h-2042z" />
<glyph unicode="&#x2018;" horiz-adv-x="307" d="M67.5 1427.5q14.5 102.5 82.5 245.5l96 -10q-59 -129 -63.5 -235.5t42.5 -235.5l-131 -10q-41 143 -26.5 245.5z" />
<glyph unicode="&#x2019;" horiz-adv-x="307" d="M61 1192q59 129 63.5 235.5t-42.5 235.5l131 10q41 -143 26.5 -245.5t-81.5 -245.5z" />
<glyph unicode="&#x201a;" horiz-adv-x="307" d="M61 -266q59 129 63.5 235.5t-42.5 235.5l131 10q41 -143 26.5 -245.5t-81.5 -245.5z" />
<glyph unicode="&#x201c;" horiz-adv-x="593" d="M67.5 1427.5q14.5 102.5 82.5 245.5l96 -10q-59 -129 -63.5 -235.5t42.5 -235.5l-131 -10q-41 143 -26.5 245.5zM354.5 1427.5q14.5 102.5 81.5 245.5l96 -10q-59 -129 -63 -235.5t43 -235.5l-131 -10q-41 143 -26.5 245.5z" />
<glyph unicode="&#x201d;" horiz-adv-x="593" d="M61 1192q59 129 63.5 235.5t-42.5 235.5l131 10q41 -143 26.5 -245.5t-81.5 -245.5zM348 1192q59 129 63.5 235.5t-42.5 235.5l131 10q41 -143 26.5 -245.5t-82.5 -245.5z" />
<glyph unicode="&#x201e;" horiz-adv-x="593" d="M61 -266q59 129 63.5 235.5t-42.5 235.5l131 10q41 -143 26.5 -245.5t-81.5 -245.5zM348 -266q59 129 63.5 235.5t-42.5 235.5l131 10q41 -143 26.5 -245.5t-82.5 -245.5z" />
<glyph unicode="&#x2022;" horiz-adv-x="782" d="M72 719q0 141 89 230t230 89t230.5 -89t89.5 -230t-89.5 -230.5t-230.5 -89.5t-230 89.5t-89 230.5z" />
<glyph unicode="&#x2026;" horiz-adv-x="1576" d="M113 76q0 37 24.5 61.5t61.5 24.5t61.5 -24.5t24.5 -61.5t-24.5 -61.5t-61.5 -24.5t-61.5 24.5t-24.5 61.5zM702 76q0 37 25 61.5t61.5 24.5t61 -24.5t24.5 -61.5t-24.5 -61.5t-61 -24.5t-61.5 24.5t-25 61.5zM1292 76q0 37 24.5 61.5t61.5 24.5t61.5 -24.5t24.5 -61.5 t-24.5 -61.5t-61.5 -24.5t-61.5 24.5t-24.5 61.5z" />
<glyph unicode="&#x202f;" horiz-adv-x="364" />
<glyph unicode="&#x2039;" horiz-adv-x="559" d="M51 440l8 95l381 380l68 -77l-363 -353l363 -352l-68 -78z" />
<glyph unicode="&#x203a;" horiz-adv-x="559" d="M51 133l363 352l-363 353l68 77l389 -385l-8 -94l-381 -381z" />
<glyph unicode="&#x205f;" horiz-adv-x="455" />
<glyph unicode="&#x20ac;" horiz-adv-x="1243" d="M10 504l8 94h181q-4 37 -4 121q0 43 4 125h-189l8 94h193q47 268 202.5 394t377.5 126q180 0 362 -76l-20 -98q-170 76 -340 76q-176 0 -303.5 -101.5t-170.5 -320.5h703l-8 -94h-709q-4 -39 -4 -125q0 -47 4 -121h635l-8 -94h-613q43 -221 169 -323.5t305 -102.5 q170 0 340 76l20 -99q-182 -76 -362 -75q-223 0 -379 125.5t-201 398.5h-201z" />
<glyph unicode="&#x2122;" horiz-adv-x="1130" d="M10 1370l4 68h437l-5 -68h-180v-448h-71v448h-185zM451 922l84 514l67 4l164 -428l162 424l65 4l86 -518h-71l-62 381l-139 -379l-80 -4l-141 383l-64 -381h-71z" />
<glyph unicode="&#xe000;" horiz-adv-x="975" d="M0 0v975h975v-975h-975z" />
</font>
</defs>
</svg>
